<?xml version="1.0" encoding="utf-8"?>
<!-- Generator: Adobe Illustrator 27.5.0, SVG Export Plug-In . SVG Version: 6.00 Build 0)  -->
<svg version="1.1" xmlns="http://www.w3.org/2000/svg" xmlns:xlink="http://www.w3.org/1999/xlink" x="0px" y="0px"
	 viewBox="0 0 750 500" style="enable-background:new 0 0 750 500;" xml:space="preserve">
<g id="Background_complete">
	<g>
		<g>
			<g>
				<g>
					<g>
						<g>
							<path style="fill:#E0E0E0;" d="M680.597,339.783H499.851c-3.232,0-5.862-2.63-5.862-5.862V70.647
								c0-3.232,2.63-5.862,5.862-5.862h180.746c3.232,0,5.862,2.629,5.862,5.862v263.273
								C686.459,337.153,683.829,339.783,680.597,339.783z M499.851,65.035c-3.095,0-5.612,2.518-5.612,5.612v263.273
								c0,3.095,2.518,5.612,5.612,5.612h180.746c3.095,0,5.612-2.518,5.612-5.612V70.647c0-3.094-2.518-5.612-5.612-5.612H499.851z
								"/>
						</g>
					</g>
					<g>
						<g>
							<path style="fill:#E0E0E0;" d="M472.169,339.783H291.423c-3.232,0-5.862-2.63-5.862-5.862V70.647
								c0-3.232,2.629-5.862,5.862-5.862h180.747c3.232,0,5.862,2.629,5.862,5.862v263.273
								C478.032,337.153,475.402,339.783,472.169,339.783z M291.423,65.035c-3.094,0-5.612,2.518-5.612,5.612v263.273
								c0,3.095,2.518,5.612,5.612,5.612h180.747c3.095,0,5.612-2.518,5.612-5.612V70.647c0-3.094-2.518-5.612-5.612-5.612H291.423z
								"/>
						</g>
					</g>
				</g>
				<g>
					<g>
						<g>
							<path style="fill:#E0E0E0;" d="M263.875,339.783H83.129c-3.232,0-5.862-2.63-5.862-5.862V70.647
								c0-3.232,2.629-5.862,5.862-5.862h180.746c3.232,0,5.862,2.629,5.862,5.862v263.273
								C269.738,337.153,267.108,339.783,263.875,339.783z M83.129,65.035c-3.094,0-5.612,2.518-5.612,5.612v263.273
								c0,3.095,2.518,5.612,5.612,5.612h180.746c3.095,0,5.612-2.518,5.612-5.612V70.647c0-3.094-2.517-5.612-5.612-5.612H83.129z"
								/>
						</g>
					</g>
				</g>
			</g>
			<g>
				<g>
					<rect y="410.563" style="fill:#E0E0E0;" width="750" height="0.12"/>
				</g>
			</g>
		</g>
		<g>
			<rect x="660.49" y="430.228" style="fill:#EBEBEB;" width="55.729" height="0.421"/>
			<rect x="501.907" y="434.794" style="fill:#EBEBEB;" width="14.627" height="0.421"/>
			<rect x="47.508" y="417.431" style="fill:#EBEBEB;" width="72.674" height="0.421"/>
			<rect x="135.162" y="417.431" style="fill:#EBEBEB;" width="10.656" height="0.421"/>
			<rect x="180.449" y="424.535" style="fill:#EBEBEB;" width="157.613" height="0.421"/>
		</g>
	</g>
	<g>
		<rect x="71.756" y="397.639" style="fill:#E0E0E0;" width="27.756" height="11.526"/>
		<rect x="87.18" y="386.2" style="fill:#E6E6E6;" width="27.756" height="11.526"/>
	</g>
	<g>
		<rect x="554.971" y="48.095" style="fill:#E0E0E0;" width="27.756" height="11.526"/>
		<rect x="570.396" y="36.656" style="fill:#E6E6E6;" width="27.756" height="11.526"/>
	</g>
	<g>
		<rect x="315.978" y="59.577" style="fill:#E0E0E0;" width="27.756" height="11.526"/>
		<rect x="331.403" y="48.138" style="fill:#E6E6E6;" width="27.756" height="11.526"/>
	</g>
	<g>
		<rect x="527.264" y="280.161" style="fill:#E0E0E0;" width="27.756" height="11.526"/>
		<rect x="543.608" y="291.471" style="fill:#F0F0F0;" width="27.756" height="11.526"/>
	</g>
	<g>
		<rect x="486.043" y="182.52" style="fill:#E0E0E0;" width="27.756" height="11.526"/>
		<rect x="502.387" y="193.83" style="fill:#F0F0F0;" width="27.756" height="11.526"/>
	</g>
	<g>
		<rect x="66.575" y="181.712" style="fill:#E0E0E0;" width="27.756" height="11.526"/>
		<rect x="82.919" y="193.022" style="fill:#F5F5F5;" width="27.756" height="11.526"/>
	</g>
	<g>
		<rect x="242.361" y="414.647" style="fill:#E0E0E0;" width="27.756" height="11.526"/>
		<rect x="258.704" y="425.957" style="fill:#F5F5F5;" width="27.756" height="11.526"/>
	</g>
	<g>
		<rect x="664.274" y="124.412" style="fill:#E0E0E0;" width="27.756" height="11.526"/>
		<rect x="680.618" y="135.722" style="fill:#F5F5F5;" width="27.756" height="11.526"/>
	</g>
	<rect x="367.797" y="355.537" style="fill:#E0E0E0;" width="27.756" height="11.526"/>
	<rect x="242.002" y="308.999" style="fill:#E0E0E0;" width="27.756" height="11.526"/>
	<rect x="669.679" y="393.234" style="fill:#E0E0E0;" width="27.756" height="11.526"/>
	<rect x="442.246" y="435.132" style="fill:#E0E0E0;" width="27.756" height="11.526"/>
	<rect x="382.76" y="344.872" style="fill:#E0E0E0;" width="27.756" height="11.526"/>
	<rect x="674.638" y="286.838" style="fill:#E0E0E0;" width="27.756" height="11.526"/>
	<rect x="165.117" y="48.926" style="fill:#E0E0E0;" width="27.756" height="11.526"/>
</g>
<g id="Background_simple" style="display:none;">
	<g style="display:inline;">
		<path style="fill:#7C3AED;" d="M252.193,64.436c-40.257,3.236-79.078,10.125-113.507,20.931
			c-40.579,12.736-82.041,32.577-69.795,58.528c22.609,47.911,131.067,48.783,109.411,80.998
			c-24.529,36.49-8.079,79.292,101.987,91.195c209.056,22.608,461.773-109.673,390.794-182.36
			C626.895,88.475,465.951,47.255,252.193,64.436z"/>
		<path style="opacity:0.9;fill:#FFFFFF;" d="M252.193,64.436c-40.257,3.236-79.078,10.125-113.507,20.931
			c-40.579,12.736-82.041,32.577-69.795,58.528c22.609,47.911,131.067,48.783,109.411,80.998
			c-24.529,36.49-8.079,79.292,101.987,91.195c209.056,22.608,461.773-109.673,390.794-182.36
			C626.895,88.475,465.951,47.255,252.193,64.436z"/>
	</g>
</g>
<g id="Shadow">
	<g>
		<g>
			<path style="fill:#F5F5F5;" d="M693.129,472.544c0,3.387-142.431,6.132-318.129,6.132s-318.129-2.745-318.129-6.132
				c0-3.387,142.431-6.132,318.129-6.132S693.129,469.157,693.129,472.544z"/>
		</g>
	</g>
</g>
<g id="Plant">
	<g>
		<g>
			<g>
				<g>
					<path style="fill:#263238;" d="M485.593,436.504c-0.018-0.552-1.876-55.402-10.798-64.078
						c-8.677-8.436-18.637-0.314-19.056,0.035l-0.895-1.072c0.113-0.095,11.352-9.27,20.924,0.035
						c9.322,9.066,11.146,62.754,11.219,65.035L485.593,436.504z"/>
				</g>
				<g>
					<path style="fill:#263238;" d="M486.359,447.284c-0.064-0.656-6.097-65.848,17.71-93.171l1.053,0.916
						c-23.413,26.871-17.436,91.469-17.374,92.118L486.359,447.284z"/>
				</g>
				<g>
					<path style="fill:#263238;" d="M485.479,440.388l-1.394-0.093c0.049-0.739,4.66-74.114-12.804-90.176l0.945-1.028
						C490.179,365.604,485.679,437.342,485.479,440.388z"/>
				</g>
				<g>
					<path style="fill:#263238;" d="M487.752,440.347l-1.396-0.011c0.017-2.021,0.576-49.561,14.08-57.3
						c3.002-1.722,5.941-2.008,8.738-0.852c8.166,3.378,12.212,17.91,12.38,18.527l-1.347,0.368
						c-0.04-0.145-4.035-14.49-11.569-17.605c-2.375-0.98-4.9-0.721-7.508,0.773C488.316,391.59,487.756,439.86,487.752,440.347z"/>
				</g>
				<g>
					<path style="fill:#263238;" d="M482.493,440.381l-1.393-0.079c0.021-0.375,2.037-37.569-8.001-50.673
						c-2.432-3.174-5.072-4.688-7.861-4.493c-6.577,0.46-12.092,10.084-12.147,10.181l-1.216-0.687
						c0.239-0.423,5.937-10.373,13.263-10.886c3.278-0.233,6.333,1.464,9.07,5.037C484.56,402.296,482.582,438.833,482.493,440.381z
						"/>
				</g>
				<g>
					<path style="fill:#263238;" d="M484.694,445.44c-0.273-3.608-6.562-88.533,4.503-103.498l1.122,0.829
						c-10.758,14.552-4.299,101.684-4.233,102.562L484.694,445.44z"/>
				</g>
			</g>
			<g>
				<path style="fill:#7C3AED;" d="M514.186,386.873c0,0-7.061,2.609-4.664,8.224c6.755,15.821,22.854,17.507,22.854,17.507
					s7.554-11.959,1.362-21.248C525.201,378.55,514.365,382.738,514.186,386.873z"/>
			</g>
			<g>
				<path style="fill:#7C3AED;" d="M483.327,379.793c0,0,7.068-0.296,7.47,5.796c0.401,6.092-15.313,22.945-15.313,22.945
					s-11.214-4.054-8.805-19.255C469.087,374.077,481.57,376.046,483.327,379.793z"/>
			</g>
			<g>
				<path style="fill:#7C3AED;" d="M486.753,344.293c0,0-2.969-0.365-4.085-3.037c-3.33-7.969,8.114-16.562,23.415-12.022
					c0,0,0.405,13.465-7.829,18.775C490.021,353.321,486.753,344.293,486.753,344.293z"/>
			</g>
			<g>
				<path style="fill:#7C3AED;" d="M471.353,353.266c0,0-0.787,3.798-4.359,4.959c-10.654,3.46-20.549-12.245-13.057-31.543
					c0,0,17.448,0.904,23.441,12.111C483.37,349.999,471.353,353.266,471.353,353.266z"/>
			</g>
			<g>
				<path style="fill:#7C3AED;" d="M460.532,386.05c0,0,2.463-3.377-1.259-3.708c-3.722-0.331-19.833,6.889-15.597,23.415
					c0,0,20.723-6.759,21.442-13.678C465.836,385.159,460.532,386.05,460.532,386.05z"/>
			</g>
			<g>
				<path style="fill:#7C3AED;" d="M504.714,350.206c0,0,0.931-3.067,4.441-4.349c3.51-1.282,16.549-0.477,16.729,16.583
					c0,0-20.058,3.334-22.541-3.165C500.86,352.777,504.714,350.206,504.714,350.206z"/>
			</g>
			<g>
				<path style="fill:#7C3AED;" d="M493.887,364.382c0,0,1.348-2.338,3.926-1.087c2.577,1.251,10.175,9.069,2.93,18.506
					c0,0-13.462-8.094-12.362-13.775C489.395,362.789,493.887,364.382,493.887,364.382z"/>
			</g>
			<g>
				<path style="fill:#7C3AED;" d="M460.904,368.497c0,0,1.944-2.548-0.903-2.863c-2.848-0.316-15.608,3.09-12.636,15.829
					c0,0,15.545-1.168,16.212-6.46C464.243,369.71,460.904,368.497,460.904,368.497z"/>
			</g>
			<polygon style="fill:#263238;" points="502.576,465.978 468.858,465.978 458.505,423.343 512.717,423.343 			"/>
			<rect x="456.124" y="417.957" style="fill:#263238;" width="58.973" height="10.773"/>
		</g>
		<polygon style="opacity:0.2;enable-background:new    ;" points="459.799,428.7 511.422,428.7 510.153,434.035 461.095,434.035 		
			"/>
		<g style="opacity:0.2;enable-background:new    ;">
			<path style="fill:#FFFFFF;" d="M514.186,386.873c0,0-7.061,2.609-4.664,8.224c6.755,15.821,22.854,17.507,22.854,17.507
				s7.554-11.959,1.362-21.248C525.201,378.55,514.365,382.738,514.186,386.873z"/>
		</g>
		<g style="opacity:0.2;enable-background:new    ;">
			<path style="fill:#FFFFFF;" d="M483.327,379.793c0,0,7.068-0.296,7.47,5.796c0.401,6.092-15.313,22.945-15.313,22.945
				s-11.214-4.054-8.805-19.255C469.087,374.077,481.57,376.046,483.327,379.793z"/>
		</g>
		<g style="opacity:0.2;enable-background:new    ;">
			<path style="fill:#FFFFFF;" d="M486.753,344.293c0,0-2.969-0.365-4.085-3.037c-3.33-7.969,8.114-16.562,23.415-12.022
				c0,0,0.405,13.465-7.829,18.775C490.021,353.321,486.753,344.293,486.753,344.293z"/>
		</g>
		<g style="opacity:0.2;enable-background:new    ;">
			<path style="fill:#FFFFFF;" d="M471.353,353.266c0,0-0.787,3.798-4.359,4.959c-10.654,3.46-20.549-12.245-13.057-31.543
				c0,0,17.448,0.904,23.441,12.111C483.37,349.999,471.353,353.266,471.353,353.266z"/>
		</g>
		<g style="opacity:0.2;enable-background:new    ;">
			<path style="fill:#FFFFFF;" d="M460.532,386.05c0,0,2.463-3.377-1.259-3.708c-3.722-0.331-19.833,6.889-15.597,23.415
				c0,0,20.723-6.759,21.442-13.678C465.836,385.159,460.532,386.05,460.532,386.05z"/>
		</g>
		<g style="opacity:0.2;enable-background:new    ;">
			<path style="fill:#FFFFFF;" d="M504.714,350.206c0,0,0.931-3.067,4.441-4.349c3.51-1.282,16.549-0.477,16.729,16.583
				c0,0-20.058,3.334-22.541-3.165C500.86,352.777,504.714,350.206,504.714,350.206z"/>
		</g>
		<g style="opacity:0.2;enable-background:new    ;">
			<path style="fill:#FFFFFF;" d="M493.887,364.382c0,0,1.348-2.338,3.926-1.087c2.577,1.251,10.175,9.069,2.93,18.506
				c0,0-13.462-8.094-12.362-13.775C489.395,362.789,493.887,364.382,493.887,364.382z"/>
		</g>
		<g style="opacity:0.2;enable-background:new    ;">
			<path style="fill:#FFFFFF;" d="M460.904,368.497c0,0,1.944-2.548-0.903-2.863c-2.848-0.316-15.608,3.09-12.636,15.829
				c0,0,15.545-1.168,16.212-6.46C464.243,369.71,460.904,368.497,460.904,368.497z"/>
		</g>
	</g>
</g>
<g id="Hearts">
	<g>
		<g>
			<path style="fill:#7C3AED;" d="M271.03,339.043c2.027-3.272,5.117-4.376,8.459-4.528c2.606-0.119,4.596,0.967,6.996,2.313
				c1.112,0.624,2.435,1.802,3.624,3.159c0.078-1.802,0.375-3.549,0.853-4.731c1.031-2.551,1.905-4.643,4.013-6.18
				c2.703-1.971,5.805-3.041,9.433-1.755c3.408,1.208,5.228,5.004,5.608,8.6c0.379,3.597-0.622,7.738-1.898,10.947
				c-2.675,6.729-5.283,12.026-9.711,16.742c-8.065-1.487-11.752-3.414-18.048-6.992c-3.002-1.706-6.374-4.312-8.327-7.356
				C270.078,346.217,269.126,342.116,271.03,339.043z"/>
		</g>
		<g style="opacity:0.5;">
			<path style="fill:#FFFFFF;" d="M271.03,339.043c2.027-3.272,5.117-4.376,8.459-4.528c2.606-0.119,4.596,0.967,6.996,2.313
				c1.112,0.624,2.435,1.802,3.624,3.159c0.078-1.802,0.375-3.549,0.853-4.731c1.031-2.551,1.905-4.643,4.013-6.18
				c2.703-1.971,5.805-3.041,9.433-1.755c3.408,1.208,5.228,5.004,5.608,8.6c0.379,3.597-0.622,7.738-1.898,10.947
				c-2.675,6.729-5.283,12.026-9.711,16.742c-8.065-1.487-11.752-3.414-18.048-6.992c-3.002-1.706-6.374-4.312-8.327-7.356
				C270.078,346.217,269.126,342.116,271.03,339.043z"/>
		</g>
	</g>
	<g>
		<g>
			<path style="fill:#7C3AED;" d="M530.782,223.73c2.814-0.733,5.079,0.273,6.986,1.93c1.488,1.293,2.01,2.924,2.622,4.911
				c0.283,0.921,0.393,2.254,0.336,3.616c0.982-0.945,2.054-1.746,2.932-2.144c1.893-0.858,3.461-1.547,5.415-1.289
				c2.505,0.331,4.76,1.361,6.074,3.955c1.234,2.436,0.253,5.461-1.414,7.626c-1.667,2.165-4.372,3.908-6.742,4.999
				c-4.97,2.287-9.156,3.826-14.035,4.098c-3.637-5.016-4.649-7.991-6.229-13.229c-0.753-2.498-1.239-5.68-0.722-8.362
				C526.524,227.159,528.139,224.42,530.782,223.73z"/>
		</g>
		<g style="opacity:0.2;enable-background:new    ;">
			<path style="fill:#263238;" d="M530.782,223.73c2.814-0.733,5.079,0.273,6.986,1.93c1.488,1.293,2.01,2.924,2.622,4.911
				c0.283,0.921,0.393,2.254,0.336,3.616c0.982-0.945,2.054-1.746,2.932-2.144c1.893-0.858,3.461-1.547,5.415-1.289
				c2.505,0.331,4.76,1.361,6.074,3.955c1.234,2.436,0.253,5.461-1.414,7.626c-1.667,2.165-4.372,3.908-6.742,4.999
				c-4.97,2.287-9.156,3.826-14.035,4.098c-3.637-5.016-4.649-7.991-6.229-13.229c-0.753-2.498-1.239-5.68-0.722-8.362
				C526.524,227.159,528.139,224.42,530.782,223.73z"/>
		</g>
	</g>
	<g>
		<g>
			<path style="fill:#7C3AED;" d="M394.787,330.539c2.814-0.733,5.079,0.273,6.986,1.93c1.488,1.293,2.01,2.924,2.622,4.911
				c0.283,0.921,0.393,2.254,0.336,3.616c0.982-0.945,2.054-1.746,2.932-2.144c1.893-0.858,3.461-1.547,5.415-1.289
				c2.505,0.331,4.76,1.361,6.074,3.955c1.234,2.436,0.253,5.461-1.414,7.626c-1.667,2.165-4.372,3.908-6.742,4.999
				c-4.97,2.287-9.156,3.825-14.035,4.098c-3.637-5.016-4.649-7.991-6.229-13.228c-0.753-2.498-1.239-5.68-0.722-8.362
				C390.529,333.968,392.145,331.228,394.787,330.539z"/>
		</g>
		<g style="opacity:0.2;enable-background:new    ;">
			<path style="fill:#263238;" d="M394.787,330.539c2.814-0.733,5.079,0.273,6.986,1.93c1.488,1.293,2.01,2.924,2.622,4.911
				c0.283,0.921,0.393,2.254,0.336,3.616c0.982-0.945,2.054-1.746,2.932-2.144c1.893-0.858,3.461-1.547,5.415-1.289
				c2.505,0.331,4.76,1.361,6.074,3.955c1.234,2.436,0.253,5.461-1.414,7.626c-1.667,2.165-4.372,3.908-6.742,4.999
				c-4.97,2.287-9.156,3.825-14.035,4.098c-3.637-5.016-4.649-7.991-6.229-13.228c-0.753-2.498-1.239-5.68-0.722-8.362
				C390.529,333.968,392.145,331.228,394.787,330.539z"/>
		</g>
	</g>
	<g>
		<g>
			<path style="fill:#7C3AED;" d="M277.752,60.795c0.819-2.359,2.618-3.497,4.711-4.068c1.633-0.446,3.047-0.041,4.757,0.47
				c0.793,0.237,1.798,0.794,2.743,1.485c-0.206-1.152-0.267-2.3-0.132-3.116c0.29-1.761,0.546-3.21,1.663-4.482
				c1.431-1.631,3.242-2.75,5.722-2.451c2.329,0.281,4.02,2.425,4.771,4.647c0.751,2.223,0.705,4.987,0.353,7.199
				c-0.738,4.639-1.636,8.363-3.769,11.977c-5.316,0.204-7.924-0.492-12.417-1.863c-2.143-0.654-4.647-1.824-6.316-3.474
				C278.169,65.471,276.983,63.011,277.752,60.795z"/>
		</g>
		<g style="opacity:0.2;enable-background:new    ;">
			<path style="fill:#263238;" d="M277.752,60.795c0.819-2.359,2.618-3.497,4.711-4.068c1.633-0.446,3.047-0.041,4.757,0.47
				c0.793,0.237,1.798,0.794,2.743,1.485c-0.206-1.152-0.267-2.3-0.132-3.116c0.29-1.761,0.546-3.21,1.663-4.482
				c1.431-1.631,3.242-2.75,5.722-2.451c2.329,0.281,4.02,2.425,4.771,4.647c0.751,2.223,0.705,4.987,0.353,7.199
				c-0.738,4.639-1.636,8.363-3.769,11.977c-5.316,0.204-7.924-0.492-12.417-1.863c-2.143-0.654-4.647-1.824-6.316-3.474
				C278.169,65.471,276.983,63.011,277.752,60.795z"/>
		</g>
	</g>
	<g>
		<g>
			<path style="fill:#7C3AED;" d="M59.988,112.011c1.729-1.802,3.839-2.084,5.979-1.729c1.67,0.277,2.786,1.235,4.126,2.414
				c0.621,0.546,1.302,1.473,1.872,2.494c0.294-1.133,0.718-2.201,1.181-2.886c0.999-1.479,1.837-2.688,3.382-3.378
				c1.982-0.885,4.094-1.145,6.222,0.162c1.999,1.227,2.641,3.882,2.395,6.215c-0.246,2.333-1.441,4.826-2.685,6.689
				c-2.607,3.908-4.979,6.916-8.426,9.309c-4.916-2.034-6.995-3.755-10.505-6.877c-1.674-1.489-3.461-3.598-4.288-5.793
				C58.414,116.434,58.364,113.703,59.988,112.011z"/>
		</g>
		<g style="opacity:0.2;enable-background:new    ;">
			<path style="fill:#263238;" d="M59.988,112.011c1.729-1.802,3.839-2.084,5.979-1.729c1.67,0.277,2.786,1.235,4.126,2.414
				c0.621,0.546,1.302,1.473,1.872,2.494c0.294-1.133,0.718-2.201,1.181-2.886c0.999-1.479,1.837-2.688,3.382-3.378
				c1.982-0.885,4.094-1.145,6.222,0.162c1.999,1.227,2.641,3.882,2.395,6.215c-0.246,2.333-1.441,4.826-2.685,6.689
				c-2.607,3.908-4.979,6.916-8.426,9.309c-4.916-2.034-6.995-3.755-10.505-6.877c-1.674-1.489-3.461-3.598-4.288-5.793
				C58.414,116.434,58.364,113.703,59.988,112.011z"/>
		</g>
	</g>
	<g>
		<g>
			<path style="fill:#7C3AED;" d="M663.35,71.839c2.375-0.773,4.368-0.026,6.088,1.297c1.341,1.032,1.873,2.404,2.499,4.075
				c0.29,0.775,0.453,1.912,0.474,3.083c0.793-0.86,1.672-1.602,2.403-1.988c1.579-0.832,2.888-1.503,4.576-1.382
				c2.165,0.155,4.15,0.923,5.409,3.079c1.183,2.025,0.496,4.669-0.822,6.61c-1.318,1.941-3.548,3.574-5.524,4.63
				c-4.143,2.215-7.653,3.748-11.822,4.231c-3.374-4.113-4.395-6.612-6.016-11.021c-0.773-2.103-1.353-4.805-1.047-7.132
				C659.875,74.996,661.12,72.565,663.35,71.839z"/>
		</g>
		<g style="opacity:0.2;enable-background:new    ;">
			<path style="fill:#263238;" d="M663.35,71.839c2.375-0.773,4.368-0.026,6.088,1.297c1.341,1.032,1.873,2.404,2.499,4.075
				c0.29,0.775,0.453,1.912,0.474,3.083c0.793-0.86,1.672-1.602,2.403-1.988c1.579-0.832,2.888-1.503,4.576-1.382
				c2.165,0.155,4.15,0.923,5.409,3.079c1.183,2.025,0.496,4.669-0.822,6.61c-1.318,1.941-3.548,3.574-5.524,4.63
				c-4.143,2.215-7.653,3.748-11.822,4.231c-3.374-4.113-4.395-6.612-6.016-11.021c-0.773-2.103-1.353-4.805-1.047-7.132
				C659.875,74.996,661.12,72.565,663.35,71.839z"/>
		</g>
	</g>
	<g>
		<g>
			<path style="fill:#7C3AED;" d="M663.777,193.471c4.886-1.425,8.899,0.221,12.319,3.024c2.668,2.187,3.665,5.014,4.835,8.458
				c0.542,1.597,0.802,3.924,0.771,6.309c1.67-1.703,3.505-3.158,5.02-3.898c3.269-1.597,5.977-2.881,9.408-2.528
				c4.4,0.452,8.395,2.141,10.826,6.612c2.283,4.2,0.718,9.541-2.089,13.412c-2.806,3.871-7.452,7.058-11.543,9.085
				c-8.578,4.251-15.824,7.154-24.347,7.876c-6.615-8.59-8.537-13.744-11.564-22.827c-1.443-4.332-2.455-9.873-1.685-14.592
				C656.5,199.684,659.189,194.81,663.777,193.471z"/>
		</g>
		<g style="opacity:0.5;">
			<path style="fill:#FFFFFF;" d="M663.777,193.471c4.886-1.425,8.899,0.221,12.319,3.024c2.668,2.187,3.665,5.014,4.835,8.458
				c0.542,1.597,0.802,3.924,0.771,6.309c1.67-1.703,3.505-3.158,5.02-3.898c3.269-1.597,5.977-2.881,9.408-2.528
				c4.4,0.452,8.395,2.141,10.826,6.612c2.283,4.2,0.718,9.541-2.089,13.412c-2.806,3.871-7.452,7.058-11.543,9.085
				c-8.578,4.251-15.824,7.154-24.347,7.876c-6.615-8.59-8.537-13.744-11.564-22.827c-1.443-4.332-2.455-9.873-1.685-14.592
				C656.5,199.684,659.189,194.81,663.777,193.471z"/>
		</g>
	</g>
	<g>
		<g>
			<path style="fill:#7C3AED;" d="M38.613,217.114c1.03-3.709,3.687-5.633,6.853-6.715c2.469-0.844,4.683-0.359,7.364,0.262
				c1.243,0.287,2.842,1.048,4.363,2.018c-0.429-1.752-0.633-3.512-0.506-4.781c0.276-2.738,0.529-4.991,2.123-7.056
				c2.044-2.649,4.721-4.545,8.564-4.326c3.609,0.206,6.42,3.34,7.791,6.686c1.371,3.347,1.569,7.603,1.243,11.041
				c-0.684,7.209-1.705,13.024-4.636,18.791c-8.158,0.83-12.238,0.013-19.283-1.66c-3.36-0.798-7.326-2.355-10.053-4.73
				C39.708,224.267,37.646,220.597,38.613,217.114z"/>
		</g>
		<g style="opacity:0.5;">
			<path style="fill:#FFFFFF;" d="M38.613,217.114c1.03-3.709,3.687-5.633,6.853-6.715c2.469-0.844,4.683-0.359,7.364,0.262
				c1.243,0.287,2.842,1.048,4.363,2.018c-0.429-1.752-0.633-3.512-0.506-4.781c0.276-2.738,0.529-4.991,2.123-7.056
				c2.044-2.649,4.721-4.545,8.564-4.326c3.609,0.206,6.42,3.34,7.791,6.686c1.371,3.347,1.569,7.603,1.243,11.041
				c-0.684,7.209-1.705,13.024-4.636,18.791c-8.158,0.83-12.238,0.013-19.283-1.66c-3.36-0.798-7.326-2.355-10.053-4.73
				C39.708,224.267,37.646,220.597,38.613,217.114z"/>
		</g>
	</g>
	<g>
		<g>
			<path style="fill:#7C3AED;" d="M374.572,42.044c3.833-0.35,6.574,1.454,8.707,4.031c1.664,2.01,1.994,4.253,2.363,6.979
				c0.171,1.264,0.027,3.029-0.342,4.795c1.487-1.022,3.06-1.836,4.292-2.166c2.658-0.712,4.854-1.273,7.351-0.513
				c3.201,0.973,5.922,2.806,7.078,6.477c1.086,3.448-0.85,7.187-3.494,9.654c-2.644,2.467-6.554,4.16-9.885,5.072
				c-6.984,1.913-12.784,3.018-19.215,2.318c-3.666-7.336-4.345-11.44-5.276-18.622c-0.444-3.425-0.391-7.685,0.864-11.077
				C368.27,45.601,370.972,42.373,374.572,42.044z"/>
		</g>
		<g style="opacity:0.5;">
			<path style="fill:#FFFFFF;" d="M374.572,42.044c3.833-0.35,6.574,1.454,8.707,4.031c1.664,2.01,1.994,4.253,2.363,6.979
				c0.171,1.264,0.027,3.029-0.342,4.795c1.487-1.022,3.06-1.836,4.292-2.166c2.658-0.712,4.854-1.273,7.351-0.513
				c3.201,0.973,5.922,2.806,7.078,6.477c1.086,3.448-0.85,7.187-3.494,9.654c-2.644,2.467-6.554,4.16-9.885,5.072
				c-6.984,1.913-12.784,3.018-19.215,2.318c-3.666-7.336-4.345-11.44-5.276-18.622c-0.444-3.425-0.391-7.685,0.864-11.077
				C368.27,45.601,370.972,42.373,374.572,42.044z"/>
		</g>
	</g>
</g>
<g id="Text">
	<g>
		<g>
			<path style="fill:#263238;" d="M139.265,119.246h-24.211V97.633h76.294v21.613l-24.211-0.134v61.059l-27.872,0.134V119.246z"/>
			<path style="fill:#263238;" d="M289.733,97.633v82.672H261.86v-30.471h-25.747v30.471h-27.872V97.633h27.872v29.289h25.747
				V97.633H289.733z"/>
			<path style="fill:#263238;" d="M359.534,165.896H328.12l-5.551,14.409h-28.345l36.14-82.672h27.4l36.14,82.672h-28.817
				L359.534,165.896z M351.858,145.818l-8.031-20.786l-8.03,20.786H351.858z"/>
			<path style="fill:#263238;" d="M487.872,97.633v82.672H464.96l-31.415-37.557v37.557h-27.164V97.633h22.912l31.416,37.557V97.633
				H487.872z"/>
		</g>
		<g>
			<path style="fill:#7C3AED;" d="M132.493,119.246h-24.211V97.633h76.294v21.613h-24.211v61.059h-27.872V119.246z"/>
			<path style="fill:#7C3AED;" d="M283.427,97.633v82.672h-27.873v-30.471h-25.747v30.471h-27.872V97.633h27.872v29.289h25.747
				V97.633H283.427z"/>
			<path style="fill:#7C3AED;" d="M353.229,165.896h-31.415l-5.551,14.409h-28.345l36.14-82.672h27.399l36.14,82.672H358.78
				L353.229,165.896z M345.552,145.818l-8.031-20.786l-8.03,20.786H345.552z"/>
			<path style="fill:#7C3AED;" d="M481.567,97.633v82.672h-22.912l-31.415-37.557v37.557h-27.164V97.633h22.912l31.416,37.557
				V97.633H481.567z"/>
		</g>
	</g>
	<path style="opacity:0.3;" d="M167.137,149.935c0,0-7.492-0.447-9.503,2.681c-2.011,3.128-1.355,8.602-1.355,8.602
		s-4.964,3.456-4.262,8.934c0.702,5.478,4.262,10.07,4.262,10.07h10.308L167.137,149.935z"/>
	<path style="opacity:0.2;" d="M167.137,149.935c0,0-7.492-0.447-9.503,2.681c-2.011,3.128-1.355,8.602-1.355,8.602
		s-4.964,3.456-4.262,8.934c0.702,5.478,4.262,10.07,4.262,10.07h10.308L167.137,149.935z"/>
	<g>
		<g>
			<path style="fill:#263238;" d="M307.268,250.831c0-25.038,19.723-43.226,46.651-43.226c26.928,0,46.651,18.188,46.651,43.226
				s-19.723,43.226-46.651,43.226C326.991,294.056,307.268,275.869,307.268,250.831z M372.461,250.831
				c0-12.873-8.266-20.668-18.542-20.668s-18.542,7.795-18.542,20.668c0,12.873,8.267,20.668,18.542,20.668
				S372.461,263.704,372.461,250.831z"/>
		</g>
		<g>
			<path style="fill:#7C3AED;" d="M300.704,250.831c0-25.038,19.723-43.226,46.651-43.226c26.928,0,46.651,18.188,46.651,43.226
				s-19.723,43.226-46.651,43.226C320.427,294.056,300.704,275.869,300.704,250.831z M365.897,250.831
				c0-12.873-8.266-20.668-18.542-20.668s-18.542,7.795-18.542,20.668c0,12.873,8.267,20.668,18.542,20.668
				S365.897,263.704,365.897,250.831z"/>
		</g>
	</g>
	<g>
		<path style="fill:#263238;" d="M411.854,254.699l4.481-45.248l27.736,2.747l-4.399,44.425
			c-1.245,12.575,3.109,17.754,10.864,18.522c7.757,0.768,13.043-3.456,14.288-16.031l4.399-44.425l27.265,2.7l-4.481,45.248
			c-2.444,24.681-18.661,37.435-43.928,34.933C422.81,295.067,409.409,279.38,411.854,254.699z"/>
		<path style="fill:#7C3AED;" d="M406.432,254.162l4.481-45.248l27.735,2.747l-4.399,44.425
			c-1.245,12.575,3.109,17.754,10.864,18.522c7.757,0.768,13.043-3.456,14.288-16.031l4.399-44.425l27.265,2.7l-4.481,45.248
			c-2.444,24.681-18.661,37.435-43.928,34.933C417.388,294.53,403.988,278.843,406.432,254.162z"/>
	</g>
</g>
<g id="Character_2">
	<g>
		<path style="fill:#263238;" d="M533.985,157.014l-7.489,5.627l-3.95,20.046l-26.883-5.297l15.981-81.112l26.884,5.297
			l-5.799,29.432l32.451-24.181l29.779,5.867l-39.476,29.297l25.118,52.135l-31.634-6.233L533.985,157.014z"/>
		<g>
			<g>
				<g>
					<g>
						<path style="fill:#FDAD6D;" d="M646.189,348.182l0.018,17.049l-8.583,0.615l-3.016-16.017
							C638.534,347.215,642.396,346.59,646.189,348.182z"/>
					</g>
				</g>
			</g>
			<g>
				<g>
					<g>
						<g>
							<g>
								<path style="fill:#263238;" d="M645.909,363.34c0.844,2.25,0.9,11.456,0.9,11.456l-18.192,0.02
									c-1.081-3.329,0.592-5.602,2.714-5.903c0.912-0.128,1.984-1.064,2.766-1.881c0.005-0.106,1.118-5.22,1.805-5.465
									c0,0,0.474-0.532,0.878-0.001c0.404,0.531,0.754,2.259,0.754,2.259C640.372,360.304,643.155,360.774,645.909,363.34z"/>
							</g>
						</g>
					</g>
				</g>
				<g>
					<g>
						<g>
							<path style="fill:#FFFFFF;" d="M646.129,366.013c-2.056-0.757-4.261-0.469-6.054,0.788c-0.314,0.22-0.611-0.295-0.3-0.513
								c1.909-1.34,4.322-1.654,6.512-0.848C646.643,365.571,646.49,366.145,646.129,366.013L646.129,366.013z"/>
						</g>
					</g>
				</g>
				<g>
					<g>
						<path style="fill:#FFFFFF;" d="M628.671,373.469C628.671,373.469,628.671,373.469,628.671,373.469l17.925-0.019
							c0.164,0,0.297-0.133,0.297-0.297c0-0.164-0.133-0.297-0.297-0.297c0,0,0,0,0,0l-17.925,0.019
							c-0.164,0-0.297,0.133-0.297,0.297C628.374,373.336,628.507,373.469,628.671,373.469z"/>
					</g>
				</g>
			</g>
		</g>
		<g>
			<g>
				<g>
					<g>
						<g>
							<path style="fill:#FDAD6D;" d="M601.72,346.407l0.021,19.242l-8.258,0.629l-4.063-18.012
								C592.736,345.805,596.587,344.599,601.72,346.407z"/>
						</g>
					</g>
				</g>
			</g>
			<g>
				<g>
					<g>
						<g>
							<g>
								<g>
									<path style="fill:#263238;" d="M602.067,363.829c0.844,2.25,0.9,11.456,0.9,11.456l-20.9,0.023
										c-1.081-3.329,1.178-5.303,3.299-5.605c0.912-0.128,4.106-1.366,4.888-2.183c0.005-0.106,1.118-5.22,1.805-5.464
										c0,0,0.474-0.532,0.877-0.001c0.404,0.531,0.754,2.259,0.754,2.259C596.531,360.792,599.313,361.263,602.067,363.829z"/>
								</g>
							</g>
						</g>
					</g>
				</g>
				<g>
					<g>
						<g>
							<g>
								<path style="fill:#FFFFFF;" d="M601.96,366.501c-2.055-0.757-4.261-0.469-6.054,0.788c-0.314,0.22-0.611-0.295-0.3-0.513
									c1.909-1.34,4.323-1.654,6.512-0.848C602.474,366.06,602.32,366.634,601.96,366.501L601.96,366.501z"/>
							</g>
						</g>
					</g>
				</g>
				<g>
					<g>
						<g>
							<path style="fill:#FFFFFF;" d="M582.065,373.961C582.065,373.961,582.065,373.961,582.065,373.961l20.689-0.022
								c0.164,0,0.297-0.133,0.297-0.297c0-0.164-0.133-0.297-0.297-0.297c0,0,0,0,0,0l-20.689,0.022
								c-0.164,0-0.297,0.133-0.297,0.297C581.768,373.828,581.901,373.961,582.065,373.961z"/>
						</g>
					</g>
				</g>
			</g>
		</g>
		<path style="fill:#7C3AED;" d="M529.012,156.018l-7.489,5.627l-3.95,20.046l-26.884-5.297l15.981-81.113l26.884,5.297
			l-5.799,29.432l32.451-24.181l29.779,5.867l-39.476,29.297l25.118,52.135l-31.634-6.233L529.012,156.018z"/>
		<path style="opacity:0.3;enable-background:new    ;" d="M521.618,119.504c0,0,7.839,8.375,8.045,11.058
			c0.206,2.682,2.063,15.886,5.571,24.965c3.507,9.078,10.729,17.95,18.981,17.95s14.918-3.153,14.918-3.153l-19.251-24.251
			l-17.862-26.556L521.618,119.504z"/>
		<path style="opacity:0.2;fill:#263238;enable-background:new    ;" d="M613.522,116.842c-1.343,0.957-2.863,1.635-4.471,1.996
			c-4.728,1.098-7.962,0.292-10.075-1.88c2.83,0.7,5.811,0.454,8.488-0.7C609.466,115.52,611.697,115.734,613.522,116.842z"/>
		<g>
			<path style="fill:none;stroke:#263238;stroke-width:0.5;stroke-linecap:round;stroke-linejoin:round;" d="M597.983,101.934
				c0,2.428-1.074,4.39-2.335,4.39c-1.261,0-2.405-1.962-2.405-4.39c0-2.429,1.074-4.39,2.405-4.39
				C596.979,97.544,597.983,99.505,597.983,101.934z"/>
			<path style="fill:#FDAD6D;" d="M613.802,116.597c-0.086,0.08-0.18,0.151-0.28,0.21c-1.332,1.016-2.851,1.758-4.471,2.183
				c-4.728,1.097-7.962,0.444-10.075-1.693l0,0c-2.954-3.211-3.689-8.896-3.269-15.761c0.074-2.732,0.578-5.435,1.494-8.009
				c0,0,0-0.105,0-0.128c0-0.023,0.07-0.198,0.117-0.292c1.176-2.95,3.771-5.101,6.888-5.709c1.33-0.297,2.688-0.45,4.051-0.455
				C621.648,86.838,624.053,108.997,613.802,116.597z"/>
			<path style="fill:#FDAD6D;" d="M614.877,128.926c0.829,3.806-4.11,5.359-4.11,5.359c-8.067-3.503-9.562-7.741-9.562-7.741
				c6.736-3.502,4.787-13.438,4.787-13.438l1.366,0.677l9.608,1.88c0,0-2.662,5.114-3.012,6.281l0,0
				C612.133,128.074,614.877,128.926,614.877,128.926z"/>
			<path style="fill:#263238;" d="M597.189,93.469c0,0-0.735,9.34,8.172,13.414c0,0,3.818,9.749,9.433,9.877
				c7.67,0.187,14.418-10.706,11.768-21.809C623.096,80.545,601.275,79.378,597.189,93.469z"/>
			<path style="fill:#263238;" d="M613.522,83.499c0,0-8.943-2.265-13.893,1.343c-5.779,4.203-7.974,8.546-1.168,15.294
				c0,0,15.026-4.868,20.022-3.841c2.921,0.589,5.787,1.421,8.569,2.487C628.139,88.858,618.519,81.467,613.522,83.499z"/>
			<path style="fill:#263238;" d="M600.832,101.934c0,0,2.335,10.811-1.331,20.034l2.809,0.594l0.741-2.651
				c0.511,0.158,0.722,3.389,1.364,3.576c6.544,1.91,18.363,4.749,23.724,1.844c7.39-4.004,0.619-17.442,0.304-25.194
				c-0.315-7.752-3.678-19.205-14.921-16.637C602.279,86.067,600.832,101.934,600.832,101.934z"/>
			
				<line style="fill:none;stroke:#263238;stroke-width:0.5;stroke-linecap:round;stroke-linejoin:round;" x1="593.579" y1="101.245" x2="602.162" y2="101.245"/>
			<g>
				<path style="fill:#263238;" d="M622.495,91.211c-0.854-2.389-0.459-5.227,1.152-7.187c1.612-1.96,4.43-2.893,6.848-2.124
					c2.418,0.77,4.208,3.283,3.987,5.81c-0.148,1.69-1.127,3.253-2.487,4.267c-1.36,1.013-3.07,1.501-4.766,1.537
					c2.508,1.741,5.635,2.572,8.676,2.304c-2.343,1.806-5.478,2.542-8.38,1.97c1.637,1.169,3.452,2.087,5.363,2.713
					c-2.081,0.955-4.546,1.037-6.686,0.224c-2.14-0.813-3.928-2.512-4.85-4.608L622.495,91.211z"/>
			</g>
		</g>
		<g>
			<g>
				<path style="fill:#7C3AED;" d="M633.627,284.139c6.526,12.704,9.834,45.57,13.37,70.443l-12.145,1.952l-14.311-46.852
					l-15.111-54.493l-4.53-16.602l0,0l-1.191,46.059c5.092,16.526,3.531,42.985,3.865,68.961l-13.858,1.411l-13.59-99.877
					c-10.507-61.725,7.46-76.307,7.46-76.307l32.024,6.445c14.5,24.657,11.056,53.308,11.056,53.308L633.627,284.139z"/>
				<path style="opacity:0.2;fill:#263238;enable-background:new    ;" d="M606.284,255.085l-0.852,0.105l-4.53-16.602
					c0,0,9.714-16.59,6.678-25.229C608.012,213.966,618.472,229.482,606.284,255.085z"/>
			</g>
			<path style="opacity:0.2;fill:#263238;enable-background:new    ;" d="M618.708,191.151l-42.146,0.544c0,0,0.532-2.4,1.247-3.52
				c0.715-1.119,0.302,0,0.302,0l39.881,1.498L618.708,191.151z"/>
		</g>
		<g>
			<path style="fill:#263238;" d="M588.094,128.085c0,0,10.682-3.806,26.782,0.841c16.1,4.647,16.707,11.5,16.707,11.5
				s-10.204,23.128-11.815,49.315l-41.96-1.564C577.809,188.176,572.8,151.213,588.094,128.085z"/>
			<path style="opacity:0.2;fill:#FFFFFF;enable-background:new    ;" d="M631.583,140.426c0,0-10.204,23.128-11.815,49.315
				l-41.96-1.564c-0.501-4.262-0.759-8.55-0.771-12.842c-0.083-6.282,0.307-12.561,1.168-18.785
				c1.401-9.69,4.285-20.034,9.889-28.51c0,0,10.682-3.806,26.782,0.841C630.976,133.526,631.583,140.426,631.583,140.426z"/>
			<path style="opacity:0.2;fill:#263238;enable-background:new    ;" d="M587.511,158.171c0,0-1.74,10.648-10.507,17.209
				c-0.083-6.282,0.307-12.561,1.168-18.785L587.511,158.171z"/>
			<path style="fill:#FDAD6D;" d="M541.15,127.35l-5.289-7.845c0,0-0.805-3.409-1.833-4.18c-1.027-0.771-11.185-5.102-12.41-5.078
				c-1.226,0.023-1.168,7.915,0,9.258c1.167,1.343,7.635,4.215,9.34,4.506c1.704,0.292,0.864,0,0.864,0l4.67,9.34L541.15,127.35z"/>
			<path style="fill:#263238;" d="M588.094,128.085c-11.33,4.745-22.262,10.39-32.69,16.882l-17.08-23.35c0,0-4.6,1.424-6.304,9.433
				c0,0,8.768,33.402,20.162,36.717c11.395,3.316,35.352-9.655,35.352-9.655S594.469,140.764,588.094,128.085z"/>
			<path style="opacity:0.2;fill:#FFFFFF;enable-background:new    ;" d="M588.094,128.085c-11.33,4.745-22.262,10.39-32.69,16.882
				l-17.08-23.35c0,0-4.6,1.424-6.304,9.433c0,0,8.768,33.402,20.162,36.717c11.395,3.316,35.352-9.655,35.352-9.655
				S594.469,140.764,588.094,128.085z"/>
			<path style="opacity:0.2;fill:#263238;enable-background:new    ;" d="M616.944,156.359c0,0-4.762,1.694-9.024-2.674
				c-4.262-4.368-6.693-18.224-6.693-18.224L616.944,156.359z"/>
			<path style="fill:#263238;" d="M598.975,126.571c0,0,4.182,28.558,17.694,29.788c13.512,1.229,19.566-21.384,17.281-24.057
				C631.664,129.629,614.332,126.37,598.975,126.571z"/>
			<path style="opacity:0.3;fill:#FFFFFF;enable-background:new    ;" d="M598.975,126.571c0,0,4.182,28.558,17.694,29.788
				c13.512,1.229,19.566-21.384,17.281-24.057C631.664,129.629,614.332,126.37,598.975,126.571z"/>
		</g>
		<path style="fill:#FDAD6D;" d="M600.832,104.187c0-1.459,1.168-3.923,3.503-3.584c2.335,0.339,3.666,6.153-2.125,7.449
			C601.334,108.238,600.832,107.257,600.832,104.187z"/>
	</g>
	<g>
		<g>
			<polygon style="fill:#263238;" points="678.741,470.123 688.516,470.143 660.114,374.624 650.841,376.305 			"/>
			<polygon style="opacity:0.3;fill:#FFFFFF;enable-background:new    ;" points="678.741,470.123 688.516,470.143 660.114,374.624 
				650.841,376.305 			"/>
		</g>
		<g>
			
				<rect x="563.675" y="374.648" transform="matrix(-1 -1.224647e-16 1.224647e-16 -1 1136.8684 844.7811)" style="fill:#263238;" width="9.518" height="95.485"/>
			
				<rect x="563.675" y="374.648" transform="matrix(-1 -1.224647e-16 1.224647e-16 -1 1136.8684 844.7811)" style="opacity:0.3;fill:#FFFFFF;enable-background:new    ;" width="9.518" height="95.485"/>
		</g>
		<g>
			
				<rect x="604.125" y="374.648" transform="matrix(-1 -1.224647e-16 1.224647e-16 -1 1217.7684 844.7811)" style="fill:#263238;" width="9.518" height="95.485"/>
			
				<rect x="604.125" y="374.648" transform="matrix(-1 -1.224647e-16 1.224647e-16 -1 1217.7684 844.7811)" style="opacity:0.1;fill:#FFFFFF;enable-background:new    ;" width="9.518" height="95.485"/>
		</g>
		<g>
			<polygon style="fill:#263238;" points="626.346,470.123 636.121,470.143 607.719,374.624 598.446,376.305 			"/>
			<polygon style="opacity:0.3;fill:#FFFFFF;enable-background:new    ;" points="626.346,470.123 636.121,470.143 607.719,374.624 
				598.446,376.305 			"/>
		</g>
		<g>
			
				<rect x="561.22" y="374.648" transform="matrix(-1 -1.224647e-16 1.224647e-16 -1 1225.957 755.7903)" style="fill:#263238;" width="103.517" height="6.494"/>
			
				<rect x="561.22" y="374.648" transform="matrix(-1 -1.224647e-16 1.224647e-16 -1 1225.957 755.7903)" style="opacity:0.5;fill:#FFFFFF;enable-background:new    ;" width="103.517" height="6.494"/>
			
				<rect x="607.951" y="374.648" transform="matrix(-1 -1.224647e-16 1.224647e-16 -1 1272.2424 755.7903)" style="opacity:0.3;fill:#FFFFFF;" width="56.341" height="6.494"/>
		</g>
		<g>
			
				<rect x="591.857" y="407.594" transform="matrix(-1 -1.224647e-16 1.224647e-16 -1 1269.2198 821.6819)" style="fill:#263238;" width="85.506" height="6.494"/>
			
				<rect x="591.857" y="407.594" transform="matrix(-1 -1.224647e-16 1.224647e-16 -1 1269.2198 821.6819)" style="opacity:0.5;fill:#FFFFFF;enable-background:new    ;" width="85.506" height="6.494"/>
			<polyline style="opacity:0.3;fill:#FFFFFF;" points="677.363,414.088 677.363,407.594 628.963,407.594 628.963,414.088 			"/>
		</g>
		<g>
			
				<rect x="599.934" y="441.988" transform="matrix(-1 -1.224647e-16 1.224647e-16 -1 1288.4502 890.4691)" style="fill:#263238;" width="88.582" height="6.494"/>
			
				<rect x="599.934" y="441.988" transform="matrix(-1 -1.224647e-16 1.224647e-16 -1 1288.4502 890.4691)" style="opacity:0.5;fill:#FFFFFF;enable-background:new    ;" width="88.582" height="6.494"/>
			
				<rect x="642.934" y="441.988" transform="matrix(-1 -1.224647e-16 1.224647e-16 -1 1331.4498 890.4691)" style="opacity:0.3;fill:#FFFFFF;" width="45.583" height="6.494"/>
		</g>
	</g>
</g>
<g id="Character_1">
	<g>
		<g>
			<polygon style="fill:#FFB5AF;" points="230.51,460.305 220.581,462.198 211.473,441.335 224.437,436.716 			"/>
			<path style="fill:#263238;" d="M219.293,460.537l3.125-1.016c0.707-0.23,1.478-0.085,2.081,0.35
				c2.603,1.875,3.655,0.505,4.862-2.447c1.199-0.55,2,0.77,2.226,1.122l5.1,7.739c0.434,0.644,0.264,1.517-0.38,1.951
				c-0.114,0.077-0.24,0.137-0.372,0.177c-3.795,1.234-5.591,1.818-10.314,3.354l-14.446,4.698
				c-3.938,1.281-6.045-2.423-4.542-3.317c6.77-3.984,11.238-7.81,12.802-10.665C219.733,461.974,219.213,461.836,219.293,460.537z"
				/>
			<path style="fill:#7C3AED;" d="M215.575,464.948c0.979-0.345,1.919-0.79,2.805-1.33c0.08-0.062,0.094-0.176,0.033-0.256
				c-0.033-0.043-0.084-0.069-0.139-0.071c-0.508-0.072-5.01-0.627-5.764,0.385c-0.145,0.179-0.174,0.425-0.076,0.634
				c0.136,0.403,0.456,0.718,0.862,0.848C214.06,465.333,214.858,465.259,215.575,464.948z M217.692,463.583
				c-1.083,0.589-3.133,1.572-4.236,1.197c-0.289-0.106-0.519-0.331-0.63-0.619c-0.048-0.086-0.038-0.193,0.026-0.268
				C213.27,463.34,215.838,463.396,217.692,463.583z"/>
			<path style="fill:#7C3AED;" d="M218.343,463.642c0.044-0.001,0.086-0.015,0.122-0.04c0.037-0.063,0.034-0.141-0.009-0.2
				c-0.053-0.163-2.222-3.711-4.285-2.769c-0.507,0.244-0.577,0.549-0.528,0.77c0.199,1.064,3.285,2.192,4.617,2.3L218.343,463.642z
				 M214.486,460.869c1.357-0.441,2.872,1.548,3.43,2.359c-1.494-0.259-3.801-1.28-3.891-1.938
				c-0.017-0.051-0.063-0.194,0.322-0.364L214.486,460.869z"/>
			<path style="fill:none;stroke:#7C3AED;stroke-width:0.5;stroke-linecap:round;stroke-linejoin:round;stroke-miterlimit:10;" d="
				M217.908,463.654c1.124-0.203,2.332,0.115,3.21,0.847"/>
			<path style="fill:none;stroke:#7C3AED;stroke-width:0.5;stroke-linecap:round;stroke-linejoin:round;stroke-miterlimit:10;" d="
				M216.441,465.748c1.124-0.203,2.332,0.115,3.21,0.847"/>
			<path style="fill:none;stroke:#7C3AED;stroke-width:0.5;stroke-linecap:round;stroke-linejoin:round;stroke-miterlimit:10;" d="
				M214.424,467.763c1.124-0.203,2.332,0.116,3.21,0.847"/>
		</g>
		<g>
			<polygon style="fill:#FFB5AF;" points="165.445,465.245 155.343,464.868 151.135,442.496 164.803,440.894 			"/>
			<path style="fill:#263238;" d="M154.46,462.961l3.273-0.291c0.741-0.066,1.459,0.248,1.95,0.806
				c2.117,2.41,3.449,1.31,5.287-1.297c1.292-0.268,1.776,1.198,1.919,1.592l3.239,8.684c0.279,0.724-0.083,1.538-0.807,1.816
				c-0.129,0.049-0.264,0.08-0.402,0.09c-3.975,0.354-5.856,0.521-10.803,0.961l-15.131,1.346c-4.125,0.367-5.349-3.714-3.685-4.25
				c7.49-2.368,12.7-5.098,14.864-7.53C154.567,464.46,154.091,464.209,154.46,462.961z"/>
			<path style="fill:#7C3AED;" d="M149.85,466.428c1.031-0.117,2.047-0.341,3.032-0.668c0.092-0.042,0.131-0.151,0.089-0.242
				c-0.023-0.049-0.067-0.086-0.119-0.1c-0.479-0.184-4.742-1.732-5.704-0.914c-0.181,0.142-0.265,0.375-0.216,0.601
				c0.043,0.424,0.284,0.802,0.651,1.019C148.286,466.465,149.081,466.571,149.85,466.428z M152.218,465.572
				c-1.188,0.332-3.405,0.831-4.396,0.219c-0.258-0.168-0.431-0.439-0.476-0.744c-0.028-0.095,0.006-0.196,0.085-0.255
				C147.962,464.345,150.453,464.975,152.218,465.572z"/>
			<path style="fill:#7C3AED;" d="M152.839,465.775c0.043,0.009,0.087,0.005,0.128-0.011c0.05-0.053,0.065-0.13,0.036-0.197
				c-0.015-0.171-1.335-4.114-3.557-3.658c-0.549,0.124-0.686,0.405-0.687,0.632c-0.044,1.081,2.711,2.871,3.986,3.275
				L152.839,465.775z M149.7,462.209c1.421-0.126,2.453,2.151,2.815,3.067c-1.399-0.586-3.418-2.098-3.358-2.76
				c-0.005-0.054-0.018-0.203,0.395-0.283L149.7,462.209z"/>
			<path style="fill:none;stroke:#7C3AED;stroke-width:0.5;stroke-linecap:round;stroke-linejoin:round;stroke-miterlimit:10;" d="
				M152.412,465.689c1.141,0.054,2.247,0.634,2.939,1.543"/>
			<path style="fill:none;stroke:#7C3AED;stroke-width:0.5;stroke-linecap:round;stroke-linejoin:round;stroke-miterlimit:10;" d="
				M150.514,467.401c1.141,0.054,2.247,0.634,2.939,1.543"/>
			<path style="fill:none;stroke:#7C3AED;stroke-width:0.5;stroke-linecap:round;stroke-linejoin:round;stroke-miterlimit:10;" d="
				M148.098,468.914c1.141,0.054,2.247,0.634,2.939,1.543"/>
		</g>
		<g>
			<path style="fill:#7C3AED;" d="M208.008,364.99c-4.9-38.8-5.688-79.715-11.508-88.385l-30.51-0.49
				c0.152,0.614,13.617,75.231,18.214,95.597c6.18,26.87,32.214,85.579,32.214,85.579l14.093-3.273
				C230.51,454.018,217.148,395,208.008,364.99z"/>
			<path style="opacity:0.2;enable-background:new    ;" d="M208.008,364.99c-4.9-38.8-5.688-79.715-11.508-88.385l-30.51-0.49
				c0.152,0.614,13.617,75.231,18.214,95.597c6.18,26.87,32.214,85.579,32.214,85.579l14.093-3.273
				C230.51,454.018,217.148,395,208.008,364.99z"/>
			<path style="fill:#7C3AED;" d="M148.731,276.754c-2.68-2.04-11.432,103.383,1.222,181.094l17.052-0.701
				c0,0-0.479-67.283,1.243-97.683c1.722-30.4,11.98-82.71,11.98-82.71L148.731,276.754z"/>
			<path style="opacity:0.2;enable-background:new    ;" d="M148.731,276.754c-2.68-2.04-11.432,103.383,1.222,181.094l17.052-0.701
				c0,0-0.479-67.283,1.243-97.683c1.722-30.4,11.98-82.71,11.98-82.71L148.731,276.754z"/>
			<path style="opacity:0.2;enable-background:new    ;" d="M168.963,350.176c0,0-1.124-7.828-1.605-17.738
				c-0.476-9.796,0.796-19.6,3.654-28.982l0,0l2.357,12.723L168.963,350.176z"/>
		</g>
		<path style="opacity:0.2;enable-background:new    ;" d="M146.856,285.295c0,0,5.472,8.772,23.458,6.582
			c17.987-2.19,28.853-7.828,28.853-7.828l-1.331-5.057l-50.252,2.062L146.856,285.295z"/>
		<g>
			<path style="fill:#FFB5AF;" d="M198.601,226.627c0.873,0.756,16.628,16.719,25.941,19.023
				c9.313,2.304,33.134-24.185,33.134-24.185l-6.008-7.28c0,0-21.703,17.283-25.661,16.34c-3.958-0.943-16.126-13.784-16.126-13.784
				L198.601,226.627z"/>
			<path style="fill:#FFB5AF;" d="M155.73,220.145c-2,6.26-4.19,12.44-6.48,18.59c-1.14,3.08-2.3,6.15-3.51,9.21
				c-1.21,3.06-2.42,6.12-3.7,9.18c-0.29,0.73-0.7,1.61-1.06,2.43s-0.76,1.61-1.15,2.39s-0.8,1.55-1.22,2.3s-0.82,1.51-1.25,2.24
				c-1.66,3-3.49,5.76-5.3,8.56c-3.68,5.57-7.58,10.88-11.78,16.06l-6.498-4.253l9.688-16.747c2.851-5.558,5.343-11.293,7.46-17.17
				l6.08-18.51c2-6.18,4.15-12.37,6.32-18.49L155.73,220.145z"/>
			<path style="fill:#263238;" d="M168.35,197.415c-0.018-0.339-13.518,0.352-15.046,2.831c-1.528,2.479-8.268,74.455-8.429,80.927
				c-0.166,6.666,40.355,11.22,55.737-0.181c0,0-2.989-53.456-2.431-62.876c0.56-9.456-1.288-17.38-1.288-17.38l-13.11-2.329
				L168.35,197.415z"/>
			<path style="fill:#263238;" d="M166.13,206.255c-2.11,6.94-9.4,24.27-9.4,24.27l-19.284-3.88c0,0,5.514-19.06,12.124-24.37
				C158.95,194.745,168.85,197.305,166.13,206.255z"/>
			<path style="opacity:0.2;enable-background:new    ;" d="M192.64,216.035c-0.71,3.18,2.09,21.76,5.54,25.33
				c0.27-4.63-0.61-13.58,0-18.53L192.64,216.035z"/>
			<path style="fill:#263238;" d="M201.599,203.505c5.935,6.438,14.289,17.689,14.289,17.689l-14.469,11.781
				c-4.717-4.833-10.157-9.955-12.593-16.253c-3.211-8.609-0.891-15.085,4.88-16.081
				C196.631,200.136,199.588,201.323,201.599,203.505z"/>
			<polygon style="opacity:0.2;enable-background:new    ;" points="149.592,229.031 151.084,212.446 143.544,227.814 			"/>
		</g>
		<path style="opacity:0.2;fill:#263238;enable-background:new    ;" d="M103.401,289.258c0,0,1.949,2.246,5.193,2.97
			c3.244,0.724,4.886,0.572,4.886,0.572l-1.824-3.542H103.401z"/>
		<g>
			<g>
				<path style="fill:#7C3AED;" d="M54.802,333.568c-2.846-6.835-1.111-12.902,2.393-18.298c2.733-4.209,6.66-6.104,11.452-8.349
					c2.221-1.04,5.544-1.79,8.998-2.129c-2.73-2.141-5.129-4.561-6.442-6.632c-2.834-4.469-5.126-8.178-5.168-13.196
					c-0.053-6.434,1.746-12.482,7.82-16.715c5.705-3.975,13.679-2.571,19.728,0.864c6.048,3.435,11.402,9.639,14.991,15.228
					c7.525,11.72,12.887,21.729,15.301,33.935c-11.357,10.945-18.5,14.552-31.146,20.388c-6.031,2.783-13.881,5.136-20.827,4.781
					C64.954,343.09,57.475,339.987,54.802,333.568z"/>
			</g>
			<g style="opacity:0.4;enable-background:new    ;">
				<path d="M54.802,333.568c-2.846-6.835-1.111-12.902,2.393-18.298c2.733-4.209,6.66-6.104,11.452-8.349
					c2.221-1.04,5.544-1.79,8.998-2.129c-2.73-2.141-5.129-4.561-6.442-6.632c-2.834-4.469-5.126-8.178-5.168-13.196
					c-0.053-6.434,1.746-12.482,7.82-16.715c5.705-3.975,13.679-2.571,19.728,0.864c6.048,3.435,11.402,9.639,14.991,15.228
					c7.525,11.72,12.887,21.729,15.301,33.935c-11.357,10.945-18.5,14.552-31.146,20.388c-6.031,2.783-13.881,5.136-20.827,4.781
					C64.954,343.09,57.475,339.987,54.802,333.568z"/>
			</g>
			<path style="fill:#FFB5AF;" d="M120.096,289.493c-1.602-2.409-3.702-3.353-3.702-3.353s-3.163-1.287-5.752-0.161
				c-2.589,1.127-4.956,1.337-6.823,2.308c-1.867,0.971,0.896,1.626,2.437,1.678c1.54,0.051,5.876-0.313,6.002,0.715l5.188,9.004
				C119.079,297.067,121.698,291.902,120.096,289.493z"/>
		</g>
		<g>
			<path style="fill:#FFB5AF;" d="M244.28,223.314l4.67-7.38l6.93,7.85c0,0-5,6.17-8.74,4L244.28,223.314z"/>
			<path style="fill:#FFB5AF;" d="M257.78,213.865l2,3.16c0.79,1.256,0.544,2.901-0.58,3.87l-3.29,2.89l-6.93-7.85l4.61-3
				c1.387-0.906,3.246-0.516,4.152,0.871C257.755,213.825,257.767,213.845,257.78,213.865z"/>
			<g>
				<path style="fill:#263238;" d="M284.828,252.178l6.142,29.363l-27.282,5.707l-6.215-29.71l-41.231-44.827l28.785-6.021
					l22.383,24.518l10.794-31.458l26.357-5.513L284.828,252.178z"/>
				<path style="fill:#7C3AED;" d="M279.636,253.423l6.142,29.362l-27.282,5.707l-6.215-29.71l-41.231-44.827l28.785-6.021
					l22.383,24.518l10.794-31.458l26.357-5.513L279.636,253.423z"/>
			</g>
			<g>
				<path style="fill:#FFB5AF;" d="M256.528,220.755c0,0-5.774,1.278-7.107,0.339c-1.332-0.939,0.739-1.998,0.739-1.998
					s-2.351,1.025-2.921,0.085c-0.684-1.128,1.491-2.227,1.491-2.227s-1.954,0.758-2.405-0.112c-0.468-0.902,1.9-2.318,1.9-2.318
					s-1.477,0.274-1.448-0.508c0.029-0.782,4.995-3.883,7.035-3.79c2.04,0.092,5.829,6.597,6.313,8.2
					c0.139,0.461,0.238,1.286-1.243,2.923c-0.31,0.343-0.839,0.396-1.206,0.115l-0.976-0.746L256.528,220.755z"/>
			</g>
			<g>
				<path style="opacity:0.2;" d="M250.105,218.986c0.003-0.002,0.006-0.003,0.01-0.004l4.184-1.59
					c0.056-0.021,0.123,0.013,0.148,0.076c0.026,0.063-0.001,0.133-0.055,0.153l-4.184,1.59c-0.056,0.021-0.123-0.013-0.148-0.075
					C250.035,219.075,250.056,219.011,250.105,218.986z"/>
			</g>
			<g>
				<path style="opacity:0.2;" d="M248.788,216.786c0.001,0,0.001-0.001,0.003-0.001l3.898-1.847
					c0.054-0.026,0.122,0.003,0.152,0.064c0.03,0.062,0.012,0.118-0.045,0.158l-3.898,1.847c-0.054,0.026-0.122-0.003-0.152-0.064
					C248.717,216.883,248.736,216.813,248.788,216.786z"/>
			</g>
			<g>
				<path style="opacity:0.2;" d="M248.301,214.348l2.857-1.455c0.054-0.027,0.122,0,0.153,0.061
					c0.031,0.06,0.013,0.132-0.041,0.159l-2.857,1.455c-0.053,0.027-0.122,0-0.153-0.061
					C248.23,214.447,248.248,214.375,248.301,214.348z"/>
			</g>
		</g>
		<g>
			<path style="fill:#FFB5AF;" d="M166.587,197.334c4.622-3.837,3.471-14.483,2.261-20.511l14.165,10.872
				c-0.284,0.707-0.519,1.432-0.704,2.171c-0.379,1.323-0.411,2.721-0.093,4.06c0.309,1.102,1.944,5.504,1.944,5.504
				s-1.954,5.484-10.488,5.647C165.255,204.858,166.587,197.334,166.587,197.334z"/>
			<path style="opacity:0.2;enable-background:new    ;" d="M171.63,182.864c-0.384,7.142,6.931,10.155,10.593,11.074
				c-0.318-1.339-0.286-2.737,0.093-4.06L171.63,182.864z"/>
			<path style="fill:#263238;" d="M184.283,155.809c7.068-0.736,2.891,4.488,10.415,6.262c-0.267,4.655-6.063,9.351-7.783,6.309
				C185.023,165.036,178.409,156.361,184.283,155.809z"/>
			<path style="fill:#FFB5AF;" d="M166.224,171.661c2.162,8.283,3.21,12.997,8.408,16.434c7.819,5.169,17.511-0.551,17.942-9.335
				c0.387-7.906-3.214-20.123-12.313-21.777C171.295,155.354,164.062,163.378,166.224,171.661z"/>
			<path style="fill:#263238;" d="M177.95,171.386c0.167,0.858,0.77,1.46,1.348,1.345c0.577-0.115,0.909-0.904,0.742-1.762
				c-0.167-0.858-0.77-1.46-1.347-1.345C178.116,169.739,177.783,170.527,177.95,171.386z"/>
			<path style="fill:#263238;" d="M186.672,170.361c0.167,0.858,0.77,1.46,1.347,1.345c0.577-0.115,0.91-0.904,0.743-1.762
				c-0.167-0.858-0.77-1.46-1.347-1.345C186.837,168.714,186.505,169.503,186.672,170.361z"/>
			<path style="fill:#DE7E73;" d="M184.833,170.324c0,0,3.626,3.733,4.86,5.299c-1.019,1.312-3.234,1.216-3.234,1.216
				L184.833,170.324z"/>
			<path style="fill:#263238;" d="M176.103,168.106c0.144,0.028,0.299-0.019,0.404-0.135c1.244-1.383,2.782-1.204,2.798-1.202
				c0.23,0.029,0.444-0.128,0.478-0.351c0.034-0.223-0.126-0.428-0.355-0.458c-0.081-0.011-2.008-0.236-3.552,1.48
				c-0.154,0.171-0.138,0.429,0.036,0.576C175.969,168.063,176.034,168.093,176.103,168.106z"/>
			<path style="fill:#263238;" d="M190.861,165.921c0.074-0.031,0.139-0.082,0.187-0.152c0.129-0.19,0.078-0.444-0.114-0.569
				c-1.927-1.246-3.704-0.494-3.788-0.47c-0.213,0.092-0.312,0.334-0.222,0.541c0.09,0.207,0.334,0.301,0.546,0.213
				c0.073-0.034,1.449-0.597,2.996,0.403C190.588,165.965,190.736,165.973,190.861,165.921z"/>
			<path style="fill:#263238;" d="M186.345,179.79c-0.641,0.967-1.211,1.983-1.705,3.039c-0.196-0.063-0.397-0.122-0.591-0.194
				c-2.668-0.893-3.649-2.193-3.913-3.37c-0.119-0.578-0.105-1.172,0.043-1.734c0.076-0.319,0.195-0.624,0.354-0.907
				c1.165,1.328,3.588,2.352,4.908,2.844C186.019,179.652,186.345,179.79,186.345,179.79z"/>
			<path style="fill:#FFFFFF;" d="M185.447,179.468l-0.528,0.882c-2.505-0.845-4.169-1.772-4.734-2.819
				c0.076-0.319,0.195-0.624,0.354-0.907C181.71,177.964,184.127,178.976,185.447,179.468z"/>
			<path style="fill:#F54948;" d="M184.056,182.696c-2.668-0.893-3.649-2.193-3.913-3.37c1.008,0.358,1.952,0.893,2.788,1.58
				C183.476,181.374,183.87,182,184.056,182.696z"/>
			<path style="fill:#263238;" d="M193.195,150.219c-5.564-1.109-7.523-0.688-12.34,0.687c0,0,1.399-2.261,1.208-5.088
				c-11.637,8.139-15.855,3.344-21.586,8.097c-3.661,3.036-0.835,7.624-0.835,7.624s-9.2,4.734,2.835,15.753
				c0.305,1.108,0.311,2.148-0.179,2.777c-0.906,1.162-2.404,1.657-3.812,2.092c2.144,0.851,4.582,0.938,6.782,0.243
				c-0.525,1.327-1.39,2.519-2.488,3.43c2.906,0.485,6.029-0.634,7.965-2.854l-1.561-6.09c0.505-0.003,1.038,0.05,1.611,0.203
				c0.591-1.942,0.907-3.957,0.939-5.986c-0.129-1.603-0.471-3.181-1.016-4.694c0,0,5.093-2.354,5.549-5.764
				c0,0,8.333,3.396,13.308-0.004C194.551,157.246,190.675,151.688,193.195,150.219z"/>
			<path style="fill:#FFB5AF;" d="M164.176,179.295c1.11,2.028,3.085,3.352,4.958,3.854c2.817,0.755,3.245-2.163,2.487-4.758
				c-0.682-2.336-1.961-5.096-4.8-4.706C164.024,174.069,162.907,176.977,164.176,179.295z"/>
			
				<path style="opacity:0.2;fill:none;stroke:#000000;stroke-width:0.5;stroke-linecap:round;stroke-linejoin:round;stroke-miterlimit:10;" d="
				M165.696,176.604c0.25-0.567,0.924-0.885,1.555-0.855c0.632,0.03,1.215,0.354,1.678,0.771c0.555,0.5,0.973,1.145,1.197,1.849"/>
		</g>
	</g>
</g>
</svg>
